<svg xmlns="http://www.w3.org/2000/svg" viewBox="0 0 64 64">
  <defs>
    <linearGradient id="bbGrad" x1="0" y1="0" x2="1" y2="1">
      <stop offset="0%" stop-color="#06b6d4"/>
      <stop offset="100%" stop-color="#0f172a"/>
    </linearGradient>
  </defs>
  <rect x="4" y="4" width="56" height="56" rx="14" fill="url(#bbGrad)"/>
  <circle cx="22" cy="24" r="6" fill="#67e8f9"/>
  <path d="M30 18h10c6.5 0 10 3.4 10 8.5 0 3.7-2.1 6.4-5.6 7.6 2.8 1 4.4 3.2 4.4 6.6 0 5.4-4 9.3-11 9.3H30V18zm8.7 12.4c2.7 0 4.1-1.1 4.1-3.1s-1.4-3.1-4.1-3.1h-1.5v6.2h1.5zm0.5 13.3c3 0 4.7-1.3 4.7-3.6 0-2.3-1.7-3.6-4.7-3.6h-2v7.1h2z" fill="#ecfeff"/>
</svg>
